<?xml version="1.0" standalone="no"?>
<!DOCTYPE svg PUBLIC "-//W3C//DTD SVG 20010904//EN"
 "http://www.w3.org/TR/2001/REC-SVG-20010904/DTD/svg10.dtd">
<svg version="1.0" xmlns="http://www.w3.org/2000/svg"
 width="960.000000pt" height="960.000000pt" viewBox="0 0 960.000000 960.000000"
 preserveAspectRatio="xMidYMid meet">
<metadata>
Created by potrace 1.14, written by Peter Selinger 2001-2017
</metadata>
<g transform="translate(0.000000,960.000000) scale(0.100000,-0.100000)"
fill="#000000" stroke="none">
<path d="M4798 9595 c-2 -2 -44 -6 -93 -9 -86 -5 -176 -13 -240 -22 -16 -2
-52 -6 -80 -9 -27 -3 -61 -7 -75 -10 -29 -6 -73 -14 -115 -20 -16 -2 -41 -6
-55 -9 -14 -3 -50 -11 -80 -17 -86 -16 -107 -21 -175 -39 -22 -6 -51 -13 -65
-16 -81 -17 -390 -116 -465 -149 -27 -12 -53 -23 -57 -24 -17 -4 -44 -13 -63
-21 -83 -35 -201 -88 -257 -117 -38 -18 -71 -33 -74 -32 -4 0 -10 -3 -13 -8
-3 -5 -24 -18 -46 -29 -80 -40 -130 -68 -135 -75 -3 -3 -21 -14 -40 -24 -19
-10 -61 -35 -92 -56 -31 -22 -62 -39 -67 -39 -6 0 -11 -4 -11 -8 0 -5 -12 -15
-27 -23 -16 -8 -33 -18 -39 -24 -6 -5 -57 -43 -113 -84 -55 -40 -101 -77 -101
-82 0 -5 -6 -9 -14 -9 -8 0 -16 -3 -18 -7 -1 -5 -30 -30 -63 -58 -120 -99
-306 -280 -410 -399 -33 -37 -65 -73 -70 -80 -6 -6 -38 -45 -70 -86 -33 -41
-62 -77 -65 -80 -9 -8 -160 -220 -160 -224 0 -3 -21 -35 -46 -73 -25 -37 -55
-84 -65 -103 -11 -19 -29 -51 -41 -70 -99 -163 -344 -697 -329 -718 1 -1 -5
-15 -13 -30 -13 -26 -87 -247 -102 -307 -10 -41 -11 -45 -14 -47 -1 -2 -3 -10
-5 -18 -1 -8 -15 -62 -30 -120 -15 -58 -29 -116 -31 -130 -3 -14 -7 -31 -10
-39 -2 -8 -7 -30 -10 -50 -3 -20 -9 -52 -14 -71 -5 -19 -11 -53 -14 -75 -4
-22 -10 -62 -16 -90 -5 -27 -12 -70 -14 -95 -3 -25 -7 -54 -10 -65 -2 -11 -7
-51 -11 -90 -4 -38 -9 -83 -11 -100 -4 -35 -10 -99 -21 -240 -10 -140 -10
-732 1 -895 5 -74 9 -152 10 -172 1 -21 3 -38 6 -38 3 0 5 -12 6 -27 1 -37 14
-170 20 -208 2 -16 7 -50 9 -75 2 -25 5 -46 6 -47 1 -2 3 -7 4 -13 1 -5 4 -13
5 -17 1 -5 1 -20 0 -35 -1 -14 4 -29 10 -33 5 -3 8 -10 5 -15 -3 -4 0 -32 6
-61 12 -63 17 -91 23 -121 13 -68 38 -183 45 -201 5 -12 6 -28 4 -34 -3 -7 -1
-13 4 -13 5 0 9 -8 10 -17 1 -20 4 -32 26 -113 29 -108 68 -234 98 -319 17
-47 31 -90 33 -96 2 -5 8 -23 14 -38 7 -16 12 -30 12 -33 0 -5 60 -148 98
-234 9 -19 16 -37 17 -40 2 -14 148 -295 189 -363 25 -43 46 -83 46 -88 0 -5
5 -9 10 -9 6 0 10 -6 10 -14 0 -8 6 -21 13 -28 6 -7 34 -47 62 -88 191 -289
441 -569 704 -790 29 -25 59 -51 66 -58 8 -6 18 -12 23 -12 6 0 12 -3 14 -8 3
-7 89 -76 124 -99 11 -7 45 -31 77 -53 32 -22 62 -40 67 -40 4 0 10 -3 12 -8
4 -9 177 -112 189 -112 5 0 9 -5 9 -12 0 -6 3 -8 7 -5 3 4 11 3 17 -3 20 -16
227 -117 326 -158 159 -66 400 -150 510 -177 3 -1 48 -12 100 -24 52 -13 104
-25 115 -27 11 -1 31 -5 45 -9 14 -3 36 -7 50 -10 14 -3 34 -7 45 -9 11 -2 40
-7 65 -11 25 -4 53 -9 64 -11 26 -5 145 -19 233 -28 17 -2 36 -6 41 -10 6 -3
13 -2 17 4 4 6 11 8 16 4 21 -13 147 -18 429 -18 261 -1 379 4 526 18 83 8
170 18 189 22 43 8 201 36 220 39 11 2 38 8 60 13 22 6 51 13 65 16 29 5 198
54 220 63 8 3 20 7 25 8 11 1 15 3 135 52 47 19 90 35 95 37 14 3 190 92 234
117 74 44 167 104 192 124 14 11 36 27 49 35 32 21 140 110 173 142 16 15 36
33 46 40 10 7 33 47 51 88 18 41 41 93 51 114 11 22 19 46 19 53 0 7 5 13 10
13 6 0 10 6 10 14 0 7 12 40 27 72 15 33 27 61 28 64 0 3 8 22 18 43 37 81 47
105 47 116 0 6 5 11 10 11 6 0 10 6 10 14 0 8 14 45 31 82 17 38 37 83 45 100
46 105 74 164 76 164 2 0 4 -15 5 -32 2 -47 13 -196 18 -243 2 -22 7 -83 10
-135 4 -52 9 -103 11 -113 3 -16 9 -99 20 -252 1 -22 3 -40 4 -40 1 0 3 -29 5
-65 1 -36 5 -86 8 -110 9 -71 21 -230 22 -287 0 -29 2 -53 5 -53 3 0 7 -26 8
-58 1 -31 4 -66 6 -77 3 -20 12 -20 739 -23 406 -1 738 1 738 5 1 5 2 1062 3
2350 1 2074 -1 2342 -14 2345 -8 2 -843 4 -1855 3 l-1840 0 -1 -717 c0 -501 3
-718 10 -721 6 -2 439 -3 961 -2 523 1 956 -1 963 -3 7 -3 10 -14 7 -31 -3
-14 -8 -39 -10 -54 -2 -15 -7 -45 -10 -66 -3 -21 -10 -53 -16 -72 -5 -19 -12
-52 -15 -74 -4 -22 -10 -45 -15 -51 -5 -6 -6 -14 -3 -17 3 -3 2 -12 -2 -19 -5
-7 -10 -20 -11 -29 -1 -9 -21 -70 -43 -135 -22 -65 -42 -123 -44 -129 -1 -5
-10 -27 -19 -49 -9 -21 -17 -41 -17 -43 0 -13 -133 -268 -141 -271 -5 -2 -9
-8 -9 -14 0 -34 -190 -285 -301 -398 -114 -115 -318 -280 -347 -280 -6 0 -12
-4 -14 -8 -13 -33 -355 -192 -488 -227 -8 -2 -42 -12 -75 -21 -280 -76 -676
-101 -950 -59 -16 2 -48 7 -70 9 -48 6 -207 41 -255 56 -19 6 -42 13 -50 15
-33 8 -141 46 -184 65 -25 10 -47 19 -49 18 -7 -4 -206 105 -292 160 -182 117
-338 253 -485 422 -30 35 -61 69 -67 76 -7 7 -13 17 -13 23 0 6 -4 11 -8 11
-4 0 -16 13 -25 30 -10 16 -23 35 -30 42 -22 24 -77 108 -77 118 0 6 -4 10
-10 10 -5 0 -10 4 -10 8 0 5 -24 49 -52 97 -29 49 -53 92 -53 95 -1 3 -7 16
-15 30 -23 40 -70 140 -96 205 -14 33 -29 69 -34 80 -21 48 -115 324 -126 370
-4 18 -24 99 -29 117 -3 10 -7 28 -10 40 -3 13 -11 50 -19 83 -9 33 -17 73
-20 89 -3 16 -10 52 -15 80 -11 54 -19 101 -26 151 -13 95 -16 114 -21 140 -3
15 -7 55 -9 89 -2 33 -5 61 -6 61 -1 0 -3 18 -5 40 -1 22 -5 74 -9 115 -12
155 -16 282 -15 520 0 246 2 289 15 455 11 125 13 150 15 150 0 0 3 18 5 40 4
50 13 114 25 183 5 29 9 56 9 60 -1 4 0 9 1 12 1 3 4 19 6 35 9 56 65 300 85
370 38 132 94 300 102 306 5 3 8 10 8 15 -2 19 10 51 49 136 12 26 22 51 22
55 0 4 10 26 21 48 12 22 22 42 22 45 4 15 53 108 67 129 10 13 15 28 12 33
-3 4 -1 8 5 8 6 0 13 11 17 25 3 14 10 25 14 25 5 0 12 10 16 22 3 12 11 26
16 32 5 6 31 45 59 86 27 41 61 93 76 115 14 22 34 47 45 56 10 9 18 19 18 22
0 27 293 323 385 389 6 4 26 20 45 35 44 36 156 113 164 113 3 0 22 12 43 26
127 87 447 216 638 259 50 11 119 24 165 31 19 2 46 7 60 9 144 24 556 24 690
0 14 -2 45 -7 70 -9 48 -6 87 -12 135 -23 17 -4 35 -8 40 -9 6 0 30 -6 55 -13
25 -8 50 -14 55 -15 81 -18 247 -82 365 -141 178 -88 327 -198 475 -350 98
-100 105 -108 184 -220 92 -131 101 -144 101 -149 0 -3 19 -41 43 -83 23 -43
53 -103 66 -133 13 -30 31 -71 39 -90 19 -43 18 -38 27 -77 4 -18 11 -33 16
-33 5 0 9 -6 9 -14 0 -7 14 -57 30 -111 17 -54 32 -107 35 -119 3 -12 20 -87
38 -169 19 -81 36 -150 39 -153 4 -4 1596 -8 1817 -4 23 0 23 1 17 73 -4 39
-9 90 -12 112 -3 22 -7 56 -9 75 -4 33 -6 48 -20 133 -3 17 -8 48 -11 67 -9
54 -11 64 -17 80 -3 8 -8 31 -11 50 -13 81 -88 347 -119 423 -9 20 -14 37 -12
37 2 0 -7 25 -20 55 -14 30 -22 55 -19 55 4 0 2 6 -3 13 -6 6 -28 52 -49 102
-148 350 -378 689 -649 960 -137 137 -222 215 -235 215 -4 0 -10 4 -12 9 -1 4
-46 40 -98 80 -52 39 -99 74 -105 79 -71 55 -470 282 -505 287 -3 1 -25 11
-50 22 -141 66 -459 182 -575 209 -43 11 -50 13 -50 14 0 1 -9 3 -20 5 -11 2
-60 13 -110 25 -49 12 -101 24 -115 26 -14 2 -45 9 -70 14 -25 5 -58 12 -75
14 -16 2 -30 5 -30 6 0 1 -13 4 -30 6 -16 2 -61 9 -99 15 -38 6 -94 13 -125
15 -31 2 -56 4 -56 4 0 4 -46 10 -95 14 -30 2 -55 5 -55 6 0 8 -799 23 -807
15z"/>
</g>
</svg>
